:FULLY-SPECIFIED
:FORCE-ALL-JOINTS-BE-3DOF
:DEGREES
243
root 9.19908 16.24 -2.52989 10.0152 -4.6181 -3.62483
lfemur -46.8645 9.60954 -21.7
ltibia 42.8981 0 0
lfoot -5.39498 4.72679 0
ltoes -2.06031 0 0
rfemur 18.5365 3.58383 23.5849
rtibia 12.9938 0 0
rfoot 7.08561 4.27887 0
rtoes -17.5287 0 0
lowerback -7.02238 2.00075 0.574912
upperback -2.61967 2.58102 2.31024
thorax 1.14815 1.2982 2.25613
lowerneck -18.8176 -6.15764 -14.1381
upperneck 17.0127 -7.78335 15.1262
head 9.67896 -3.00691 6.58642
lclavicle 1.31803e-14 1.4445e-14 0
lhumerus -47.4488 -4.94381 88.9095
lradius 19.648 0 0
lwrist -6.18791 0 0
lhand -7.41661 -23.4505 0
lfingers 7.12502 0 0
lthumb 18.4701 5.69275 0
rclavicle 1.31803e-14 1.4445e-14 0
rhumerus -45.9899 9.01177 -87.5139
rradius 43.7078 0 0
rwrist -23.7793 0 0
rhand -30.7892 -21.5975 0
rfingers 7.12502 0 0
rthumb -4.07952 -51.5364 0
244
root 9.23821 16.2697 -2.3725 9.97021 -4.92377 -3.16045
lfemur -46.0598 9.625 -22.2844
ltibia 42.8246 0 0
lfoot -6.12693 4.82315 0
ltoes -1.7245 0 0
rfemur 16.4694 3.00506 22.5747
rtibia 17.5488 0 0
rfoot 7.79076 4.61628 0
rtoes -16.7557 0 0
lowerback -6.84379 2.0219 0.259428
upperback -2.78188 2.63766 2.15847
thorax 0.872938 1.33015 2.26895
lowerneck -18.6575 -6.084 -14.1119
upperneck 17.1238 -7.69032 14.9963
head 9.6642 -2.98074 6.55221
lclavicle 3.73613e-15 9.21864e-15 0
lhumerus -47.1033 -4.79099 88.6589
lradius 19.6766 0 0
lwrist -6.69478 0 0
lhand -7.36413 -23.1925 0
lfingers 7.12502 0 0
lthumb 18.5206 5.94609 0
rclavicle 3.73613e-15 9.21864e-15 0
rhumerus -46.2723 8.74686 -87.3052
rradius 42.8181 0 0
rwrist -23.2705 0 0
rhand -30.2127 -21.5456 0
rfingers 7.12502 0 0
rthumb -3.52278 -51.4941 0
245
root 9.27734 16.2993 -2.21512 9.92074 -5.24838 -2.69045
lfemur -45.2009 9.62116 -22.8576
ltibia 42.6536 0 0
lfoot -6.83737 4.97131 0
ltoes -1.40108 0 0
rfemur 14.2725 2.41536 21.5577
rtibia 22.2744 0 0
rfoot 8.40738 4.92093 0
rtoes -16.0266 0 0
lowerback -6.68019 2.04436 -0.0583354
upperback -2.93002 2.69423 2.00835
thorax 0.620408 1.36203 2.28602
lowerneck -18.5004 -6.0017 -14.0733
upperneck 17.234 -7.58563 14.8555
head 9.64701 -2.94945 6.51367
lclavicle -5.89431e-15 3.6223e-15 0
lhumerus -46.7316 -4.68919 88.449
lradius 19.7469 0 0
lwrist -7.085 0 0
lhand -7.32212 -22.9393 0
lfingers 7.12502 0 0
lthumb 18.561 6.19547 0
rclavicle -5.89431e-15 3.6223e-15 0
rhumerus -46.5265 8.51726 -87.098
rradius 41.9615 0 0
rwrist -22.7426 0 0
rhand -29.6506 -21.7141 0
rfingers 7.12502 0 0
rthumb -2.98003 -51.6718 0
246
root 9.31647 16.3289 -2.05774 9.8553 -5.56693 -2.23141
lfemur -44.3012 9.59795 -23.4058
ltibia 42.4051 0 0
lfoot -7.49826 5.14416 0
ltoes -1.0588 0 0
rfemur 12.1244 1.8565 20.5967
rtibia 26.8097 0 0
rfoot 8.98224 5.05557 0
rtoes -15.5101 0 0
lowerback -6.52842 2.05828 -0.372202
upperback -3.03549 2.73742 1.86834
thorax 0.418628 1.38664 2.31207
lowerneck -18.4159 -5.92086 -14.0208
upperneck 17.3497 -7.47824 14.7148
head 9.64454 -2.9133 6.47326
lclavicle -1.41481e-14 -1.56543e-15 0
lhumerus -46.2958 -4.66951 88.2988
lradius 19.8449 0 0
lwrist -7.30521 0 0
lhand -7.31363 -22.7215 0
lfingers 7.12502 0 0
lthumb 18.5692 6.41237 0
rclavicle -1.41481e-14 -1.56543e-15 0
rhumerus -46.7171 8.34284 -86.9203
rradius 41.1914 0 0
rwrist -22.2706 0 0
rhand -29.2485 -22.0564 0
rfingers 7.12502 0 0
rthumb -2.59173 -52.0205 0
247
root 9.3556 16.3586 -1.90036 9.76238 -5.85443 -1.79992
lfemur -43.374 9.55533 -23.9149
ltibia 42.0992 0 0
lfoot -8.08158 5.31458 0
ltoes -0.666402 0 0
rfemur 10.2037 1.37025 19.7541
rtibia 30.7944 0 0
rfoot 9.56213 4.88299 0
rtoes -15.3751 0 0
lowerback -6.38529 2.05378 -0.675997
upperback -3.06967 2.75391 1.74692
thorax 0.295667 1.39674 2.35183
lowerneck -18.4737 -5.85161 -13.953
upperneck 17.477 -7.37709 14.5853
head 9.67392 -2.87252 6.43342
lclavicle -1.94623e-14 -5.56597e-15 0
lhumerus -45.758 -4.76304 88.2269
lradius 19.9566 0 0
lwrist -7.30207 0 0
lhand -7.36173 -22.5698 0
lfingers 7.12502 0 0
lthumb 18.5229 6.56827 0
rclavicle -1.94623e-14 -5.56597e-15 0
rhumerus -46.8088 8.24347 -86.8
rradius 40.5611 0 0
rwrist -21.9297 0 0
rhand -29.1518 -22.5261 0
rfingers 7.12502 0 0
rthumb -2.49833 -52.4912 0
248
root 9.3887 16.3907 -1.76269 9.63274 -6.12711 -1.37798
lfemur -42.3877 9.47583 -24.3933
ltibia 41.6926 0 0
lfoot -8.57645 5.51181 0
ltoes -0.15967 0 0
rfemur 8.49 0.951845 19.0046
rtibia 34.2772 0 0
rfoot 10.2351 4.393 0
rtoes -15.7877 0 0
lowerback -6.25006 2.03346 -0.988705
upperback -3.01317 2.74746 1.63914
thorax 0.270053 1.39411 2.41158
lowerneck -18.7213 -5.79728 -13.8611
upperneck 17.6238 -7.28361 14.4642
head 9.74647 -2.82564 6.39159
lclavicle -2.12672e-14 -8.43547e-15 0
lhumerus -45.0924 -5.01103 88.2639
lradius 20.0921 0 0
lwrist -6.98567 0 0
lhand -7.47839 -22.4961 0
lfingers 7.12502 0 0
lthumb 18.4106 6.65232 0
rclavicle -2.12672e-14 -8.43547e-15 0
rhumerus -46.7685 8.23762 -86.7545
rradius 40.0683 0 0
rwrist -21.7214 0 0
rhand -29.4519 -23.3237 0
rfingers 7.12502 0 0
rthumb -2.78807 -53.2827 0
249
root 9.4218 16.4227 -1.62502 9.47371 -6.4082 -0.948718
lfemur -41.3253 9.35602 -24.8536
ltibia 41.1607 0 0
lfoot -9.00312 5.76337 0
ltoes 0.449236 0 0
rfemur 6.83631 0.56692 18.2928
rtibia 37.5563 0 0
rfoot 10.9813 3.69335 0
rtoes -16.6462 0 0
lowerback -6.12515 2.00573 -1.31906
upperback -2.88501 2.72946 1.53725
thorax 0.323038 1.38487 2.4888
lowerneck -19.1123 -5.75044 -13.7444
upperneck 17.7869 -7.19092 14.3421
head 9.85075 -2.77219 6.34529
lclavicle -2.06992e-14 -1.0808e-14 0
lhumerus -44.3242 -5.39685 88.4008
lradius 20.2646 0 0
lwrist -6.38069 0 0
lhand -7.64757 -22.4784 0
lfingers 7.12502 0 0
lthumb 18.2479 6.68516 0
rclavicle -2.06992e-14 -1.0808e-14 0
rhumerus -46.6177 8.3131 -86.7651
rradius 39.67 0 0
rwrist -21.5858 0 0
rhand -30.0506 -24.5266 0
rfingers 7.12502 0 0
rthumb -3.36624 -54.4739 0
250
root 9.4549 16.4548 -1.48735 9.29872 -6.68323 -0.530424
lfemur -40.2221 9.21684 -25.2888
ltibia 40.5513 0 0
lfoot -9.38025 6.03962 0
ltoes 1.077 0 0
rfemur 5.23144 0.212833 17.637
rtibia 40.6453 0 0
rfoot 11.6858 2.82371 0
rtoes -17.7174 0 0
lowerback -6.01205 1.96945 -1.64552
upperback -2.71416 2.69808 1.44547
thorax 0.426773 1.36835 2.575
lowerneck -19.576 -5.70507 -13.6138
upperneck 17.9553 -7.09552 14.2202
head 9.96974 -2.71387 6.29712
lclavicle -1.87545e-14 -1.27719e-14 0
lhumerus -43.4918 -5.86478 88.5973
lradius 20.4648 0 0
lwrist -5.60572 0 0
lhand -7.85027 -22.4961 0
lfingers 7.12502 0 0
lthumb 18.0528 6.68552 0
rclavicle -1.87545e-14 -1.27719e-14 0
rhumerus -46.4034 8.44376 -86.8051
rradius 39.3581 0 0
rwrist -21.5062 0 0
rhand -30.8093 -25.9033 0
rfingers 7.12502 0 0
rthumb -4.09887 -55.8362 0
251
root 9.48799 16.4869 -1.34969 9.12116 -6.93775 -0.14137
lfemur -39.1133 9.07926 -25.6919
ltibia 39.9123 0 0
lfoot -9.72648 6.3109 0
ltoes 1.64032 0 0
rfemur 3.66419 -0.113056 17.0551
rtibia 43.5577 0 0
rfoot 12.2335 1.82372 0
rtoes -18.7679 0 0
lowerback -5.91229 1.92349 -1.94654
upperback -2.52964 2.65147 1.36804
thorax 0.553412 1.34387 2.6617
lowerneck -20.0415 -5.65513 -13.4804
upperneck 18.1184 -6.99393 14.0995
head 10.0864 -2.65238 6.24966
lclavicle -1.64294e-14 -1.44156e-14 0
lhumerus -42.634 -6.35912 88.813
lradius 20.6834 0 0
lwrist -4.7793 0 0
lhand -8.06752 -22.5288 0
lfingers 7.12502 0 0
lthumb 17.8438 6.67213 0
rclavicle -1.64294e-14 -1.44156e-14 0
rhumerus -46.1723 8.60345 -86.8479
rradius 39.1248 0 0
rwrist -21.4658 0 0
rhand -31.5892 -27.2226 0
rfingers 7.12502 0 0
rthumb -4.85195 -57.1406 0
252
root 9.52109 16.5189 -1.21202 8.95444 -7.15728 0.200166
lfemur -38.0341 8.96424 -26.0558
ltibia 39.2916 0 0
lfoot -10.0605 6.54758 0
ltoes 2.05586 0 0
rfemur 2.12336 -0.413389 16.5652
rtibia 46.307 0 0
rfoot 12.5094 0.733046 0
rtoes -19.5646 0 0
lowerback -5.82737 1.86671 -2.20057
upperback -2.36042 2.58781 1.30918
thorax 0.675107 1.31076 2.7404
lowerneck -20.4379 -5.5946 -13.3549
upperneck 18.2654 -6.88263 13.981
head 10.1838 -2.58945 6.20551
lclavicle -1.47202e-14 -1.58273e-14 0
lhumerus -41.7891 -6.82417 89.0076
lradius 20.9108 0 0
lwrist -4.02002 0 0
lhand -8.28032 -22.556 0
lfingers 7.12502 0 0
lthumb 17.639 6.66374 0
rclavicle -1.47202e-14 -1.58273e-14 0
rhumerus -45.9713 8.76604 -86.867
rradius 38.9623 0 0
rwrist -21.4478 0 0
rhand -32.2515 -28.2529 0
rfingers 7.12502 0 0
rthumb -5.49151 -58.1586 0
